<svg xmlns="http://www.w3.org/2000/svg" width="1920" height="1080"><path d="M1988,1317L1632,1488L2195,1313Z" fill="#a6e2b1" stroke="#a6e2b1" stroke-width="1.51"/><path d="M1381,-479L1938,-428L2258,-437Z" fill="#63c4a1" stroke="#63c4a1" stroke-width="1.51"/><path d="M2258,-437L1983,-91L2280,-38Z" fill="#7cceb4" stroke="#7cceb4" stroke-width="1.51"/><path d="M2152,631L2044,855L2323,930Z" fill="#d4f2da" stroke="#d4f2da" stroke-width="1.51"/><path d="M2176,1079L2195,1313L2323,930Z" fill="#ace4b6" stroke="#ace4b6" stroke-width="1.51"/><path d="M2258,-437L2280,-38L2325,140Z" fill="#84d1bb" stroke="#84d1bb" stroke-width="1.51"/><path d="M2325,140L1919,399L2351,504Z" fill="#81cfb7" stroke="#81cfb7" stroke-width="1.51"/><path d="M1919,399L2152,631L2351,504Z" fill="#a5dec6" stroke="#a5dec6" stroke-width="1.51"/><path d="M2152,631L2323,930L2351,504Z" fill="#d8f3e2" stroke="#d8f3e2" stroke-width="1.51"/><path d="M2280,-38L1900,98L2325,140Z" fill="#7ccdb4" stroke="#7ccdb4" stroke-width="1.51"/><path d="M1900,98L1919,399L2325,140Z" fill="#72caad" stroke="#72caad" stroke-width="1.51"/><path d="M1938,-428L1983,-91L2258,-437Z" fill="#73caad" stroke="#73caad" stroke-width="1.51"/><path d="M2044,855L2176,1079L2323,930Z" fill="#bfeac7" stroke="#bfeac7" stroke-width="1.51"/><path d="M1983,-91L1900,98L2280,-38Z" fill="#72caad" stroke="#72caad" stroke-width="1.51"/><path d="M1900,98L1846,197L1919,399Z" fill="#65c5a3" stroke="#65c5a3" stroke-width="1.51"/><path d="M1939,1152L1988,1317L2176,1079Z" fill="#99dda7" stroke="#99dda7" stroke-width="1.51"/><path d="M2176,1079L1988,1317L2195,1313Z" fill="#a5e1b1" stroke="#a5e1b1" stroke-width="1.51"/><path d="M1919,399L1868,567L2152,631Z" fill="#9fdbbe" stroke="#9fdbbe" stroke-width="1.51"/><path d="M2044,855L1939,1152L2176,1079Z" fill="#abe2b5" stroke="#abe2b5" stroke-width="1.51"/><path d="M1868,567L2044,855L2152,631Z" fill="#c6ebd1" stroke="#c6ebd1" stroke-width="1.51"/><path d="M451,1385L-64,1465L951,1469Z" fill="#7eceb6" stroke="#7eceb6" stroke-width="1.51"/><path d="M1938,-428L1652,-271L1983,-91Z" fill="#63c4a1" stroke="#63c4a1" stroke-width="1.51"/><path d="M1868,567L1757,772L2044,855Z" fill="#c7ebce" stroke="#c7ebce" stroke-width="1.51"/><path d="M1750,905L1939,1152L2044,855Z" fill="#a9e2b4" stroke="#a9e2b4" stroke-width="1.51"/><path d="M1757,772L1750,905L2044,855Z" fill="#b8e6c0" stroke="#b8e6c0" stroke-width="1.51"/><path d="M279,-454L1184,-396L1381,-479Z" fill="#69c4b9" stroke="#69c4b9" stroke-width="1.51"/><path d="M1750,905L1832,1192L1939,1152Z" fill="#93d9a1" stroke="#93d9a1" stroke-width="1.51"/><path d="M1734,22L1900,98L1983,-91Z" fill="#64c4a2" stroke="#64c4a2" stroke-width="1.51"/><path d="M1652,-271L1734,22L1983,-91Z" fill="#60c39e" stroke="#60c39e" stroke-width="1.51"/><path d="M1939,1152L1832,1192L1988,1317Z" fill="#95dba3" stroke="#95dba3" stroke-width="1.51"/><path d="M1832,1192L1632,1488L1988,1317Z" fill="#99dca6" stroke="#99dca6" stroke-width="1.51"/><path d="M279,-454L865,-333L1184,-396Z" fill="#40b8ab" stroke="#40b8ab" stroke-width="1.51"/><path d="M1415,1401L951,1469L1632,1488Z" fill="#d7f3db" stroke="#d7f3db" stroke-width="1.51"/><path d="M1381,-479L1652,-271L1938,-428Z" fill="#70c8aa" stroke="#70c8aa" stroke-width="1.51"/><path d="M1846,197L1581,360L1919,399Z" fill="#61c39f" stroke="#61c39f" stroke-width="1.51"/><path d="M1581,360L1600,467L1919,399Z" fill="#7ecdaf" stroke="#7ecdaf" stroke-width="1.51"/><path d="M1600,467L1868,567L1919,399Z" fill="#85d0ad" stroke="#85d0ad" stroke-width="1.51"/><path d="M1734,22L1846,197L1900,98Z" fill="#60c39f" stroke="#60c39f" stroke-width="1.51"/><path d="M1554,666L1757,772L1868,567Z" fill="#bae6c9" stroke="#bae6c9" stroke-width="1.51"/><path d="M1600,467L1554,666L1868,567Z" fill="#a8dec2" stroke="#a8dec2" stroke-width="1.51"/><path d="M1652,-271L1552,-167L1734,22Z" fill="#72c8ab" stroke="#72c8ab" stroke-width="1.51"/><path d="M1750,905L1391,1079L1832,1192Z" fill="#a4dfae" stroke="#a4dfae" stroke-width="1.51"/><path d="M1734,22L1581,360L1846,197Z" fill="#69c6a5" stroke="#69c6a5" stroke-width="1.51"/><path d="M1415,1401L1632,1488L1832,1192Z" fill="#aee4b8" stroke="#aee4b8" stroke-width="1.51"/><path d="M1391,1079L1415,1401L1832,1192Z" fill="#a9e1b3" stroke="#a9e1b3" stroke-width="1.51"/><path d="M1372,56L1581,360L1734,22Z" fill="#7cccb3" stroke="#7cccb3" stroke-width="1.51"/><path d="M1454,798L1391,1079L1750,905Z" fill="#c6ebcb" stroke="#c6ebcb" stroke-width="1.51"/><path d="M1454,798L1750,905L1757,772Z" fill="#c8eccd" stroke="#c8eccd" stroke-width="1.51"/><path d="M1554,666L1454,798L1757,772Z" fill="#daf2de" stroke="#daf2de" stroke-width="1.51"/><path d="M1552,-167L1372,56L1734,22Z" fill="#7dccb4" stroke="#7dccb4" stroke-width="1.51"/><path d="M1391,1079L1338,1340L1415,1401Z" fill="#c0eac7" stroke="#c0eac7" stroke-width="1.51"/><path d="M1381,-479L1552,-167L1652,-271Z" fill="#80ceb6" stroke="#80ceb6" stroke-width="1.51"/><path d="M1372,56L1228,142L1581,360Z" fill="#8fd3c3" stroke="#8fd3c3" stroke-width="1.51"/><path d="M1581,360L1291,669L1600,467Z" fill="#acdecb" stroke="#acdecb" stroke-width="1.51"/><path d="M1291,669L1554,666L1600,467Z" fill="#c5e8d8" stroke="#c5e8d8" stroke-width="1.51"/><path d="M1113,440L1291,669L1581,360Z" fill="#bbe4d9" stroke="#bbe4d9" stroke-width="1.51"/><path d="M1228,142L1113,440L1581,360Z" fill="#99d6ca" stroke="#99d6ca" stroke-width="1.51"/><path d="M1255,-22L1372,56L1552,-167Z" fill="#8fd3c3" stroke="#8fd3c3" stroke-width="1.51"/><path d="M1381,-479L1184,-396L1552,-167Z" fill="#92d3c4" stroke="#92d3c4" stroke-width="1.51"/><path d="M1184,-396L1255,-22L1552,-167Z" fill="#96d5c8" stroke="#96d5c8" stroke-width="1.51"/><path d="M1291,669L1454,798L1554,666Z" fill="#e3f5e8" stroke="#e3f5e8" stroke-width="1.51"/><path d="M1338,1340L951,1469L1415,1401Z" fill="#dbf4df" stroke="#dbf4df" stroke-width="1.51"/><path d="M1266,1036L1391,1079L1454,798Z" fill="#d1efd5" stroke="#d1efd5" stroke-width="1.51"/><path d="M1291,669L1266,1036L1454,798Z" fill="#e8f7e9" stroke="#e8f7e9" stroke-width="1.51"/><path d="M1080,968L1266,1036L1291,669Z" fill="#e5f6e9" stroke="#e5f6e9" stroke-width="1.51"/><path d="M1266,1036L1096,1149L1338,1340Z" fill="#c5ebcb" stroke="#c5ebcb" stroke-width="1.51"/><path d="M1266,1036L1338,1340L1391,1079Z" fill="#bae6c1" stroke="#bae6c1" stroke-width="1.51"/><path d="M1255,-22L1228,142L1372,56Z" fill="#9cd7cc" stroke="#9cd7cc" stroke-width="1.51"/><path d="M1096,1149L951,1469L1338,1340Z" fill="#c1e9cf" stroke="#c1e9cf" stroke-width="1.51"/><path d="M677,1376L451,1385L951,1469Z" fill="#7dceb4" stroke="#7dceb4" stroke-width="1.51"/><path d="M1037,384L1113,440L1228,142Z" fill="#8cd0c7" stroke="#8cd0c7" stroke-width="1.51"/><path d="M1184,-396L910,-23L1255,-22Z" fill="#8ad0c6" stroke="#8ad0c6" stroke-width="1.51"/><path d="M1113,440L863,586L1291,669Z" fill="#bde4de" stroke="#bde4de" stroke-width="1.51"/><path d="M863,586L1080,968L1291,669Z" fill="#e4f4f1" stroke="#e4f4f1" stroke-width="1.51"/><path d="M865,-333L910,-23L1184,-396Z" fill="#71c7bc" stroke="#71c7bc" stroke-width="1.51"/><path d="M1080,968L1096,1149L1266,1036Z" fill="#c3e9cf" stroke="#c3e9cf" stroke-width="1.51"/><path d="M910,-23L1228,142L1255,-22Z" fill="#8dd1c8" stroke="#8dd1c8" stroke-width="1.51"/><path d="M863,586L795,790L1080,968Z" fill="#c3e7df" stroke="#c3e7df" stroke-width="1.51"/><path d="M875,177L1037,384L1228,142Z" fill="#7dcbc1" stroke="#7dcbc1" stroke-width="1.51"/><path d="M910,-23L875,177L1228,142Z" fill="#75c8be" stroke="#75c8be" stroke-width="1.51"/><path d="M1080,968L840,1077L1096,1149Z" fill="#a9dfc2" stroke="#a9dfc2" stroke-width="1.51"/><path d="M840,1077L951,1469L1096,1149Z" fill="#9cdabb" stroke="#9cdabb" stroke-width="1.51"/><path d="M1037,384L863,586L1113,440Z" fill="#97d5cc" stroke="#97d5cc" stroke-width="1.51"/><path d="M840,1077L693,1191L951,1469Z" fill="#85d1b1" stroke="#85d1b1" stroke-width="1.51"/><path d="M795,790L840,1077L1080,968Z" fill="#a9ddc9" stroke="#a9ddc9" stroke-width="1.51"/><path d="M865,-333L762,-228L910,-23Z" fill="#52bdb1" stroke="#52bdb1" stroke-width="1.51"/><path d="M693,1191L677,1376L951,1469Z" fill="#86d1b5" stroke="#86d1b5" stroke-width="1.51"/><path d="M875,177L694,508L1037,384Z" fill="#5ec1b5" stroke="#5ec1b5" stroke-width="1.51"/><path d="M694,508L863,586L1037,384Z" fill="#83cdc3" stroke="#83cdc3" stroke-width="1.51"/><path d="M735,157L694,508L875,177Z" fill="#3eb8ab" stroke="#3eb8ab" stroke-width="1.51"/><path d="M762,-228L775,-56L910,-23Z" fill="#4bbbae" stroke="#4bbbae" stroke-width="1.51"/><path d="M84,1395L-64,1465L451,1385Z" fill="#7bcdb3" stroke="#7bcdb3" stroke-width="1.51"/><path d="M795,790L605,989L840,1077Z" fill="#8cd2bb" stroke="#8cd2bb" stroke-width="1.51"/><path d="M279,-454L408,-260L865,-333Z" fill="#1ab1a4" stroke="#1ab1a4" stroke-width="1.51"/><path d="M735,157L875,177L910,-23Z" fill="#51bdb0" stroke="#51bdb0" stroke-width="1.51"/><path d="M775,-56L735,157L910,-23Z" fill="#48baae" stroke="#48baae" stroke-width="1.51"/><path d="M694,508L795,790L863,586Z" fill="#96d5cc" stroke="#96d5cc" stroke-width="1.51"/><path d="M408,-260L762,-228L865,-333Z" fill="#1ab1a4" stroke="#1ab1a4" stroke-width="1.51"/><path d="M605,989L693,1191L840,1077Z" fill="#70c8a8" stroke="#70c8a8" stroke-width="1.51"/><path d="M367,451L694,508L735,157Z" fill="#31b5a8" stroke="#31b5a8" stroke-width="1.51"/><path d="M562,26L735,157L775,-56Z" fill="#20b2a5" stroke="#20b2a5" stroke-width="1.51"/><path d="M694,508L426,616L795,790Z" fill="#86cec5" stroke="#86cec5" stroke-width="1.51"/><path d="M426,616L605,989L795,790Z" fill="#98d6ca" stroke="#98d6ca" stroke-width="1.51"/><path d="M762,-228L562,26L775,-56Z" fill="#25b3a5" stroke="#25b3a5" stroke-width="1.51"/><path d="M371,106L367,451L735,157Z" fill="#1ab1a4" stroke="#1ab1a4" stroke-width="1.51"/><path d="M408,-260L562,26L762,-228Z" fill="#1ab1a4" stroke="#1ab1a4" stroke-width="1.51"/><path d="M562,26L371,106L735,157Z" fill="#1ab1a4" stroke="#1ab1a4" stroke-width="1.51"/><path d="M426,616L344,964L605,989Z" fill="#8fd3c2" stroke="#8fd3c2" stroke-width="1.51"/><path d="M605,989L375,1107L693,1191Z" fill="#68c5a4" stroke="#68c5a4" stroke-width="1.51"/><path d="M451,1385L677,1376L693,1191Z" fill="#71c9ab" stroke="#71c9ab" stroke-width="1.51"/><path d="M375,1107L451,1385L693,1191Z" fill="#67c5a4" stroke="#67c5a4" stroke-width="1.51"/><path d="M367,451L426,616L694,508Z" fill="#67c4b8" stroke="#67c4b8" stroke-width="1.51"/><path d="M277,284L367,451L371,106Z" fill="#1ab1a4" stroke="#1ab1a4" stroke-width="1.51"/><path d="M344,964L375,1107L605,989Z" fill="#75c9ae" stroke="#75c9ae" stroke-width="1.51"/><path d="M408,-260L252,-151L562,26Z" fill="#1ab1a4" stroke="#1ab1a4" stroke-width="1.51"/><path d="M252,-151L371,106L562,26Z" fill="#1ab1a4" stroke="#1ab1a4" stroke-width="1.51"/><path d="M130,1099L84,1395L375,1107Z" fill="#64c4a1" stroke="#64c4a1" stroke-width="1.51"/><path d="M344,964L304,1048L375,1107Z" fill="#72c8ab" stroke="#72c8ab" stroke-width="1.51"/><path d="M117,735L344,964L426,616Z" fill="#9cd7cd" stroke="#9cd7cd" stroke-width="1.51"/><path d="M375,1107L84,1395L451,1385Z" fill="#6ec8aa" stroke="#6ec8aa" stroke-width="1.51"/><path d="M367,451L117,735L426,616Z" fill="#7ccbc1" stroke="#7ccbc1" stroke-width="1.51"/><path d="M279,-454L252,-151L408,-260Z" fill="#1ab1a4" stroke="#1ab1a4" stroke-width="1.51"/><path d="M30,658L117,735L367,451Z" fill="#80ccc2" stroke="#80ccc2" stroke-width="1.51"/><path d="M277,284L248,302L367,451Z" fill="#22b2a5" stroke="#22b2a5" stroke-width="1.51"/><path d="M304,1048L130,1099L375,1107Z" fill="#6ac6a6" stroke="#6ac6a6" stroke-width="1.51"/><path d="M248,302L30,658L367,451Z" fill="#57beb2" stroke="#57beb2" stroke-width="1.51"/><path d="M252,-151L-115,208L371,106Z" fill="#1ab1a4" stroke="#1ab1a4" stroke-width="1.51"/><path d="M-115,208L248,302L371,106Z" fill="#1ab1a4" stroke="#1ab1a4" stroke-width="1.51"/><path d="M248,302L277,284L371,106Z" fill="#1ab1a4" stroke="#1ab1a4" stroke-width="1.51"/><path d="M130,1099L304,1048L344,964Z" fill="#72c9ac" stroke="#72c9ac" stroke-width="1.51"/><path d="M117,735L130,1099L344,964Z" fill="#83cfb9" stroke="#83cfb9" stroke-width="1.51"/><path d="M-119,464L30,658L248,302Z" fill="#58bfb3" stroke="#58bfb3" stroke-width="1.51"/><path d="M-187,-14L-115,208L252,-151Z" fill="#1ab1a4" stroke="#1ab1a4" stroke-width="1.51"/><path d="M-140,-231L252,-151L279,-454Z" fill="#1ab1a4" stroke="#1ab1a4" stroke-width="1.51"/><path d="M117,735L-63,838L130,1099Z" fill="#8ad1be" stroke="#8ad1be" stroke-width="1.51"/><path d="M-275,-321L-140,-231L279,-454Z" fill="#1ab1a4" stroke="#1ab1a4" stroke-width="1.51"/><path d="M-140,-231L-187,-14L252,-151Z" fill="#1ab1a4" stroke="#1ab1a4" stroke-width="1.51"/><path d="M-115,208L-119,464L248,302Z" fill="#1ab1a4" stroke="#1ab1a4" stroke-width="1.51"/><path d="M-176,1207L84,1395L130,1099Z" fill="#67c6a4" stroke="#67c6a4" stroke-width="1.51"/><path d="M-63,838L-176,1207L130,1099Z" fill="#71c8aa" stroke="#71c8aa" stroke-width="1.51"/><path d="M30,658L-63,838L117,735Z" fill="#a0d8d1" stroke="#a0d8d1" stroke-width="1.51"/><path d="M-176,1207L-64,1465L84,1395Z" fill="#75cbaf" stroke="#75cbaf" stroke-width="1.51"/><path d="M-275,705L-63,838L30,658Z" fill="#9ed7d0" stroke="#9ed7d0" stroke-width="1.51"/><path d="M-119,464L-275,705L30,658Z" fill="#7eccc2" stroke="#7eccc2" stroke-width="1.51"/><path d="M-244,-186L-187,-14L-140,-231Z" fill="#1ab1a4" stroke="#1ab1a4" stroke-width="1.51"/><path d="M-310,514L-275,705L-119,464Z" fill="#71c7bc" stroke="#71c7bc" stroke-width="1.51"/><path d="M-176,1207L-372,1346L-64,1465Z" fill="#73caad" stroke="#73caad" stroke-width="1.51"/><path d="M-409,886L-176,1207L-63,838Z" fill="#7cccb3" stroke="#7cccb3" stroke-width="1.51"/><path d="M-275,705L-409,886L-63,838Z" fill="#96d5c8" stroke="#96d5c8" stroke-width="1.51"/><path d="M-409,886L-431,1179L-176,1207Z" fill="#69c6a5" stroke="#69c6a5" stroke-width="1.51"/><path d="M-187,-14L-333,37L-115,208Z" fill="#1ab1a4" stroke="#1ab1a4" stroke-width="1.51"/><path d="M-310,514L-119,464L-115,208Z" fill="#3cb7aa" stroke="#3cb7aa" stroke-width="1.51"/><path d="M-333,37L-310,514L-115,208Z" fill="#1ab1a4" stroke="#1ab1a4" stroke-width="1.51"/><path d="M-275,-321L-244,-186L-140,-231Z" fill="#1ab1a4" stroke="#1ab1a4" stroke-width="1.51"/><path d="M-244,-186L-333,37L-187,-14Z" fill="#1ab1a4" stroke="#1ab1a4" stroke-width="1.51"/><path d="M-431,1179L-372,1346L-176,1207Z" fill="#69c6a5" stroke="#69c6a5" stroke-width="1.51"/><path d="M-275,-321L-333,37L-244,-186Z" fill="#1ab1a4" stroke="#1ab1a4" stroke-width="1.51"/><path d="M-310,514L-409,886L-275,705Z" fill="#96d4cc" stroke="#96d4cc" stroke-width="1.51"/><path d="M-333,37L-409,886L-310,514Z" fill="#5abfb3" stroke="#5abfb3" stroke-width="1.51"/></svg>